<svg width="24" height="24" viewBox="0 0 24 24" fill="none" xmlns="http://www.w3.org/2000/svg">
<path fill-rule="evenodd" clip-rule="evenodd" d="M15.7425 10.4906L17.6804 3.76849C18.049 2.48983 17.0894 1.21447 15.7587 1.21447H7.74348C6.41476 1.21447 5.45543 2.48623 5.82041 3.76384L7.72865 10.4436C8.08013 11.674 7.15629 12.8987 5.8767 12.8987C4.25175 12.8987 3.35704 14.787 4.38614 16.0445L10.2963 23.2666C11.1114 24.2627 12.6416 24.2407 13.4277 23.2215L19.0476 15.9362C20.0039 14.6965 19.1202 12.8987 17.5544 12.8987C16.2997 12.8987 15.3949 11.6962 15.7425 10.4906ZM10.9461 20.275C11.2933 19.9886 11.3425 19.475 11.0562 19.1279L8.08829 15.5299C7.80193 15.1827 7.28837 15.1335 6.94122 15.4198C6.59406 15.7062 6.54478 16.2197 6.83114 16.5669L9.79903 20.1649C10.0854 20.512 10.5989 20.5613 10.9461 20.275Z" fill="white"/>
</svg>
