<svg width="24" height="24" viewBox="0 0 24 24" fill="none" xmlns="http://www.w3.org/2000/svg">
<path fill-rule="evenodd" clip-rule="evenodd" d="M7.64821 14.7239L5.7103 21.446C5.34167 22.7246 6.3013 24 7.63203 24H15.6472C16.9759 24 17.9353 22.7282 17.5703 21.4506L15.662 14.7709C15.3106 13.5405 16.2344 12.3158 17.514 12.3158C19.1389 12.3158 20.0336 10.4275 19.0045 9.16994L13.0944 1.94785C12.2792 0.951783 10.7491 0.973797 9.96299 1.9929L4.34312 9.27822C3.38678 10.518 4.27051 12.3158 5.83625 12.3158C7.09097 12.3158 7.99578 13.5183 7.64821 14.7239ZM12.4446 4.93949C12.0974 5.22584 12.0481 5.7394 12.3345 6.08656L15.3024 9.68456C15.5888 10.0317 16.1023 10.081 16.4495 9.79463C16.7966 9.50828 16.8459 8.99472 16.5596 8.64757L13.5917 5.04957C13.3053 4.70241 12.7917 4.65313 12.4446 4.93949Z" fill="white"/>
</svg>
